PathFileType	4	(X/Y/Z)	71_2_50_p0_0-312_filt_butterworth.trc
DataRate	CameraRate	NumFrames	NumMarkers	Units	OrigDataRate	OrigDataStartFrame	OrigNumFrames
44.0	44.0	5	27	m	44.0	273	312
Frame#	Time	RHip			RKnee			RAnkle			RBigToe			RSmallToe			RHeel			LHip			LKnee			LAnkle			LBigToe			LSmallToe			LHeel			Neck			Head			Nose			RShoulder			RElbow			RWrist			RThumb			RIndex			RPinky			LShoulder			LElbow			LWrist			LThumb			LIndex			LPinky			
		X1	Y1	Z1	X2	Y2	Z2	X3	Y3	Z3	X4	Y4	Z4	X5	Y5	Z5	X6	Y6	Z6	X7	Y7	Z7	X8	Y8	Z8	X9	Y9	Z9	X10	Y10	Z10	X11	Y11	Z11	X12	Y12	Z12	X13	Y13	Z13	X14	Y14	Z14	X15	Y15	Z15	X16	Y16	Z16	X17	Y17	Z17	X18	Y18	Z18	X19	Y19	Z19	X20	Y20	Z20	X21	Y21	Z21	X22	Y22	Z22	X23	Y23	Z23	X24	Y24	Z24	X25	Y25	Z25	X26	Y26	Z26	X27	Y27	Z27	
273	6.204545454545454	0.4050899754117169	0.7305557567854424	0.5749802955084083	0.42904996893086594	0.248569668003503	0.6583208546952686	0.4240490589483978	-0.1512850074209895	0.6431783853767967	0.4062429340878272	-0.1727938555400716	0.4968035645618992	0.4719834227005332	-0.1559070010467259	0.48880969533890056	0.40830724815916736	-0.18759503406397227	0.6663564394862368	0.22043162471546365	0.7162016832245438	0.5938508110355947	0.23826542947266083	0.2494576992266009	0.624639983443699	0.23228794188505042	-0.15617383792024725	0.6607581347672643	0.2522272924534039	-0.17445830739256343	0.5038791224991096	0.18962717846594385	-0.14948424257837542	0.5121193875548979	0.24711921548608765	-0.19387812484851316	0.6852980980026344	0.2953897903549706	1.2180637504969378	0.6192499664453255	0.2863041804156623	1.4638434752220912	0.5775998996617595	0.2710704169866949	1.3482140785518353	0.5061416820639244	0.43460525746803924	1.1214225167885887	0.6056933507143177	0.4708513946700091	0.8589073608986667	0.5988297550117943	0.4633315146405694	0.6016416374765692	0.5573707297263027	0.4236907323592115	0.5134089169912444	0.4722997321419546	0.4416102273957845	0.4720269019749931	0.5028005916195616	0.46555182827746294	0.477083365670629	0.560742303148543	0.14129370172378103	1.1200569395223792	0.612901805182285	0.13356341969104948	0.8580234675900057	0.588066466800608	0.14921421642960195	0.6147002353734352	0.5478076598985662	0.1885889935898696	0.5388200955362926	0.47156136624861844	0.17788537653361203	0.5167051367616391	0.47167350242770045	0.12020398324506995	0.5149121647923444	0.5270752927519436	
274	6.227272727272728	0.405290771629915	0.731067855749706	0.5742646387698334	0.4292001373672702	0.24959858271579727	0.6581439037586279	0.42381354243710834	-0.15091210971469726	0.6423701581777054	0.4065488030360661	-0.17375541997283941	0.4969594632194474	0.47157842100588293	-0.15461227477755546	0.4871207865275066	0.40751953767887455	-0.18784131818633037	0.667669186857586	0.22045996685684852	0.7168437791873992	0.59391058372677	0.23830407870680687	0.24992516075446755	0.6247946848528518	0.23224017528600885	-0.15598946004218273	0.6608446010954351	0.2521184739554675	-0.1746343061962988	0.504112763062966	0.18961838458748861	-0.14960213005258202	0.5123298341438143	0.24671921554811038	-0.19423446563210833	0.6859314800352764	0.29543137544154374	1.2174716439646758	0.6191958535105982	0.28746380828460466	1.464032824426282	0.5786374017690259	0.27106792289300663	1.348207511646394	0.5061312241833178	0.4346598470601327	1.1214059520680317	0.6057072000229192	0.4708646257116855	0.859219016037374	0.5993460686780371	0.4633820484509923	0.6017045198284877	0.5572494924787662	0.4235528219642213	0.5130130388464595	0.4723496244777139	0.4416568886226823	0.47205673950970684	0.502621300526465	0.4657769061224091	0.47731597702420747	0.5579802794688318	0.14131267747435386	1.1199480561093464	0.6131567268616975	0.13350782779301246	0.8585335644457377	0.5879017143524508	0.1480331236450035	0.6153744354147559	0.5455931276673305	0.18943910767285674	0.5392274668668925	0.4716040961581711	0.1778300487868728	0.5164973333375882	0.4717935127110848	0.12137598163063634	0.5134752842021502	0.5294461320125436	
275	6.25	0.40555913611336747	0.7317754344773713	0.5738782118346362	0.42918207109900774	0.25085194661827825	0.6577799316580367	0.423633321974125	-0.15065509461847423	0.6420155179146034	0.40686991360734653	-0.17459256948176016	0.4972198347386271	0.47170798798451263	-0.1545193295491275	0.48744303522167937	0.4066326728520634	-0.1881985865041932	0.6689766061312534	0.22039882214783169	0.7174967692020457	0.5939768296789877	0.2384774107779861	0.2503542184934691	0.6250074114149866	0.2323061304858638	-0.15590954387208925	0.660933372613358	0.25200364483903726	-0.17437425206965007	0.5036962936787861	0.18969665980944247	-0.1496225493383699	0.5123670863030456	0.24626865460015843	-0.1950511401606895	0.6873390480896692	0.2954881048536208	1.2166803346413033	0.619136200634155	0.2884062876257443	1.464083991286312	0.5809722869318329	0.2710643297450295	1.348200174590168	0.5061125607950953	0.43503984345088026	1.121379396943452	0.6057526643118025	0.4712730731797855	0.8589246830681687	0.5991037693966816	0.46375973602304477	0.6020399219105909	0.5563780426624858	0.4234232850743167	0.5125309108455458	0.47244231327933356	0.44167760392478217	0.471760846665096	0.5028452716759305	0.46599989903706296	0.47738229082362316	0.5554407935083994	0.14132153179030357	1.1198036742471549	0.6135050774452813	0.1334245678178188	0.8592821192797776	0.5877462529301646	0.14670333191290777	0.6163753442192788	0.5429533170182306	0.19033997171443817	0.5396003679773308	0.4717857147496478	0.17778029985259047	0.516109622318408	0.4718439614303165	0.12288259322439676	0.511481725314239	0.5324058337636596	
276	6.2727272727272725	0.40589037613376605	0.7325667395195886	0.5739447450994569	0.42911177552594226	0.2520961462713426	0.6572288897735982	0.4234447247001421	-0.15043791965836467	0.6421365409998588	0.4071081691758309	-0.17505650644025164	0.49755803087581263	0.4723454434886013	-0.15578153214698676	0.48964295051757856	0.40567066682105046	-0.18858287149055245	0.6701552990122227	0.22029093208487785	0.7181159112876527	0.594034441495957	0.23877467879050682	0.25066183970187295	0.6252140233141109	0.23248052466219196	-0.15601990460348242	0.6610236643732991	0.25188085036053404	-0.17398832540137973	0.5030790917360498	0.18986234389388457	-0.14934853630696387	0.5119058471735496	0.24578876986710374	-0.19612963702573713	0.6892340340166297	0.29555644741502374	1.2157648554253309	0.6190834310360853	0.2891741970415346	1.4639369066602488	0.5835994971653926	0.2710598680622525	1.3482183499710771	0.5060994540823354	0.4356872381797463	1.1213488674883143	0.6058218388243728	0.47196706737997995	0.8582229771688459	0.5976630879981576	0.4643683144458463	0.6026696969639528	0.5546857821515097	0.4232965106420564	0.5121692108494222	0.47258658561923217	0.44168493251060836	0.47141960154980117	0.5031814295675854	0.46605867141609775	0.47725269312540064	0.5535833367639776	0.14132562573885749	1.1196712698195945	0.6138141179634098	0.13333753934606046	0.860090416374785	0.5876031980929637	0.14542623561307377	0.6173727205198495	0.5402023106736302	0.1911709580434236	0.5399938287961779	0.4720592213782284	0.17776218754097	0.5156735989085834	0.4718685541429587	0.12448484110605086	0.509179808302259	0.5355735753991059	
277	6.295454545454546	0.40624262453035304	0.7331670459607255	0.5743976941826944	0.42909612143412734	0.25323767735775926	0.6565224321327037	0.4232273662818324	-0.15018804838643304	0.6425489082203065	0.40717902524249616	-0.1748579699641292	0.4977798092207791	0.4732459113894587	-0.1578362039222651	0.4928221374757895	0.40471131400788596	-0.18899718373396668	0.6714366539780415	0.22016945263486304	0.7185591250172917	0.5940652133520632	0.23907556524067675	0.2508947273273122	0.6253245382203013	0.23264450105089696	-0.1562588547615131	0.661117143204224	0.25176691110416854	-0.1737591920721121	0.5026613736318369	0.1900038375363903	-0.14878222802326058	0.5109649124654854	0.24529357454429646	-0.1971566197406778	0.6912485553634216	0.2956352488724218	1.2147459052142773	0.6190481936143348	0.28987011373518257	1.4637445868503671	0.5858561645816451	0.2710530675369257	1.3483129526891524	0.5061073366028384	0.4364758218880575	1.1213189442228715	0.6058966458338921	0.4727845412346938	0.8574599156143505	0.5952273754369841	0.465056203150062	0.6037152526371397	0.5518677932989122	0.4231473205794094	0.5120324113266063	0.472765484490549	0.44165552053151685	0.47127319419003266	0.5036510961547936	0.46599349783514576	0.4768362758271158	0.5526000685439084	0.1413252540237751	1.1195857959414113	0.6139790754881375	0.13324603101790075	0.86095301506328	0.5875044822115763	0.14407008074238037	0.6182172405511777	0.537551951419565	0.19184788531613514	0.5404871177709182	0.47236969991315925	0.17779140352394535	0.5151529050926155	0.4718799836123385	0.12592416240567533	0.5067003318942614	0.5387187890331497	
